<svg width="222" height="222" viewBox="0 0 222 222" fill="none" xmlns="http://www.w3.org/2000/svg">
<path fill-rule="evenodd" clip-rule="evenodd" d="M107.822 93.7612C107.822 97.3481 106.403 100.792 103.884 103.328L103.523 103.692C101.006 106.236 97.5855 107.658 94.0236 107.658H13.4455C6.02456 107.658 0 113.718 0 121.191V208.332C0 215.806 6.02456 221.866 13.4455 221.866H99.9622C107.383 221.866 113.4 215.806 113.4 208.332V126.745C113.4 123.419 114.71 120.228 117.047 117.874C119.377 115.527 122.546 114.207 125.849 114.207H207.777C215.198 114.207 221.214 108.148 221.214 100.674V13.5333C221.214 6.05956 215.198 0 207.777 0H121.26C113.839 0 107.822 6.05956 107.822 13.5333V93.7612ZM134.078 18.55H194.952C199.289 18.55 202.796 22.0893 202.796 26.4503V87.7574C202.796 92.1178 199.289 95.6577 194.952 95.6577H134.078C129.748 95.6577 126.233 92.1178 126.233 87.7574V26.4503C126.233 22.0893 129.748 18.55 134.078 18.55Z" fill="white"/>
<path d="M207.882 129.57H143.558C135.76 129.57 129.438 135.937 129.438 143.791V207.784C129.438 215.638 135.76 222.005 143.558 222.005H207.882C215.681 222.005 222.003 215.638 222.003 207.784V143.791C222.003 135.937 215.681 129.57 207.882 129.57Z" fill="white"/>
<path d="M207.882 129.27H143.557C135.759 129.27 129.438 135.636 129.438 143.491V207.483C129.438 215.337 135.759 221.703 143.557 221.703H207.882C215.681 221.703 222.003 215.337 222.003 207.483V143.491C222.003 135.636 215.681 129.27 207.882 129.27Z" fill="url(#paint0_linear_2888_11298)" fill-opacity="0.2"/>
<defs>
<linearGradient id="paint0_linear_2888_11298" x1="129.438" y1="129.27" x2="185.633" y2="185.334" gradientUnits="userSpaceOnUse">
<stop/>
<stop offset="1" stop-opacity="0"/>
</linearGradient>
</defs>
</svg>
